<svg xmlns="http://www.w3.org/2000/svg" viewBox="0 0 512 512" role="img" aria-labelledby="iconTitle iconDesc">
  <title id="iconTitle">Cloud Music Parsing Icon</title>
  <desc id="iconDesc">Blue rounded background cloud and music glyph icon</desc>
  <defs>
    <linearGradient id="iconBg" x1="0" y1="0" x2="1" y2="1">
      <stop offset="0%" stop-color="#0f6fff"/>
      <stop offset="55%" stop-color="#1f88ff"/>
      <stop offset="100%" stop-color="#2dc2ff"/>
    </linearGradient>
    <linearGradient id="iconCloud" x1="0" y1="0" x2="0" y2="1">
      <stop offset="0%" stop-color="#ffffff"/>
      <stop offset="100%" stop-color="#dcecff"/>
    </linearGradient>
    <linearGradient id="iconNote" x1="0" y1="0" x2="1" y2="1">
      <stop offset="0%" stop-color="#ffd489"/>
      <stop offset="100%" stop-color="#ff7a28"/>
    </linearGradient>
    <linearGradient id="iconWave" x1="0" y1="1" x2="1" y2="0">
      <stop offset="0%" stop-color="#2c7cff"/>
      <stop offset="100%" stop-color="#8fd4ff"/>
    </linearGradient>
    <filter id="iconGlyphShadow" x="-14%" y="-14%" width="128%" height="128%">
      <feDropShadow dx="0" dy="2" stdDeviation="2" flood-color="#0f4fb8" flood-opacity="0.16"/>
    </filter>
    <clipPath id="iconRounded">
      <rect x="0" y="0" width="512" height="512" rx="120"/>
    </clipPath>
  </defs>

  <g clip-path="url(#iconRounded)">
    <rect x="0" y="0" width="512" height="512" fill="url(#iconBg)"/>

    <g transform="translate(256 256) scale(1.44) translate(-256 -256)" filter="url(#iconGlyphShadow)">
      <g opacity="1">
        <circle cx="178" cy="270" r="66" fill="url(#iconCloud)"/>
        <circle cx="242" cy="236" r="80" fill="url(#iconCloud)"/>
        <circle cx="316" cy="270" r="58" fill="url(#iconCloud)"/>
        <rect x="152" y="273" width="196" height="76" rx="38" fill="url(#iconCloud)"/>
      </g>

      <path d="M170 229h-28c-9 0-16 7-16 16v71c0 9 7 16 16 16h28" fill="none" stroke="#bfdcff" stroke-width="10" stroke-linecap="round"/>
      <path d="M336 229h28c9 0 16 7 16 16v71c0 9-7 16-16 16h-28" fill="none" stroke="#bfdcff" stroke-width="10" stroke-linecap="round"/>

      <g fill="url(#iconWave)">
        <rect x="194" y="296" width="14" height="44" rx="7"/>
        <rect x="216" y="284" width="14" height="68" rx="7"/>
        <rect x="238" y="272" width="14" height="92" rx="7"/>
        <rect x="260" y="284" width="14" height="68" rx="7"/>
        <rect x="282" y="296" width="14" height="44" rx="7"/>
      </g>

      <path d="M309 156v140.5c0 18.2-14.8 33-33 33s-33-14.8-33-33 14.8-33 33-33c6.1 0 11.7 1.7 16.5 4.5v-85l97-22.4v122.2c0 18.2-14.8 33-33 33s-33-14.8-33-33 14.8-33 33-33c6.1 0 11.7 1.7 16.5 4.5V188z" fill="url(#iconNote)"/>
    </g>
  </g>
</svg>
