<svg xmlns="http://www.w3.org/2000/svg" viewBox="0 0 512 512" role="img" aria-labelledby="iconTitle iconDesc">
  <title id="iconTitle">云音解析 图标</title>
  <desc id="iconDesc">云朵与音符结合解析波形的方形图标</desc>
  <defs>
    <linearGradient id="iconPanel" x1="0" y1="0" x2="1" y2="1">
      <stop offset="0%" stop-color="#0f6fff"/>
      <stop offset="58%" stop-color="#1f88ff"/>
      <stop offset="100%" stop-color="#2dc2ff"/>
    </linearGradient>
    <radialGradient id="iconHalo" cx="20%" cy="14%" r="78%">
      <stop offset="0%" stop-color="#ffffff" stop-opacity="0.34"/>
      <stop offset="100%" stop-color="#ffffff" stop-opacity="0"/>
    </radialGradient>
    <linearGradient id="iconCloud" x1="0" y1="0" x2="0" y2="1">
      <stop offset="0%" stop-color="#ffffff"/>
      <stop offset="100%" stop-color="#e7f1ff"/>
    </linearGradient>
    <linearGradient id="iconNote" x1="0" y1="0" x2="1" y2="1">
      <stop offset="0%" stop-color="#ffd489"/>
      <stop offset="100%" stop-color="#ff7a28"/>
    </linearGradient>
    <linearGradient id="iconWave" x1="0" y1="1" x2="1" y2="0">
      <stop offset="0%" stop-color="#7abfff"/>
      <stop offset="100%" stop-color="#ffffff"/>
    </linearGradient>
    <filter id="iconShadow" x="-20%" y="-20%" width="140%" height="140%">
      <feDropShadow dx="0" dy="16" stdDeviation="14" flood-color="#0f3f96" flood-opacity="0.24"/>
    </filter>
  </defs>

  <g filter="url(#iconShadow)">
    <rect x="36" y="36" width="440" height="440" rx="112" fill="url(#iconPanel)"/>
    <rect x="39" y="39" width="434" height="434" rx="109" fill="none" stroke="#ffffff" stroke-opacity="0.22" stroke-width="4"/>
    <rect x="36" y="36" width="440" height="440" rx="112" fill="url(#iconHalo)"/>
  </g>

  <g opacity="0.95">
    <circle cx="178" cy="270" r="66" fill="url(#iconCloud)"/>
    <circle cx="242" cy="236" r="80" fill="url(#iconCloud)"/>
    <circle cx="316" cy="270" r="58" fill="url(#iconCloud)"/>
    <rect x="152" y="273" width="196" height="76" rx="38" fill="url(#iconCloud)"/>
  </g>

  <path d="M170 229h-28c-9 0-16 7-16 16v71c0 9 7 16 16 16h28" fill="none" stroke="#d9ecff" stroke-width="10" stroke-linecap="round"/>
  <path d="M336 229h28c9 0 16 7 16 16v71c0 9-7 16-16 16h-28" fill="none" stroke="#d9ecff" stroke-width="10" stroke-linecap="round"/>

  <g fill="url(#iconWave)">
    <rect x="194" y="296" width="14" height="44" rx="7"/>
    <rect x="216" y="284" width="14" height="68" rx="7"/>
    <rect x="238" y="272" width="14" height="92" rx="7"/>
    <rect x="260" y="284" width="14" height="68" rx="7"/>
    <rect x="282" y="296" width="14" height="44" rx="7"/>
  </g>

  <path d="M309 156v140.5c0 18.2-14.8 33-33 33s-33-14.8-33-33 14.8-33 33-33c6.1 0 11.7 1.7 16.5 4.5v-85l97-22.4v122.2c0 18.2-14.8 33-33 33s-33-14.8-33-33 14.8-33 33-33c6.1 0 11.7 1.7 16.5 4.5V188z" fill="url(#iconNote)"/>
</svg>
